<svg height="512" viewBox="0 0 64 64" width="512" xmlns="http://www.w3.org/2000/svg"><circle cx="32" cy="32" fill="#bddbff" r="2"/><path d="m27 43h10v12h-10z" fill="#bddbff"/><path d="m61 7v4h-58v-4a4 4 0 0 1 4-4h50a4 4 0 0 1 4 4z" fill="#bddbff"/><g fill="#3d9ae2"><path d="m57 2h-50a5.006 5.006 0 0 0 -5 5v50a5.006 5.006 0 0 0 5 5h50a5.006 5.006 0 0 0 5-5v-50a5.006 5.006 0 0 0 -5-5zm-50 2h50a3 3 0 0 1 3 3v3h-56v-3a3 3 0 0 1 3-3zm50 56h-50a3 3 0 0 1 -3-3v-45h56v45a3 3 0 0 1 -3 3z"/><path d="m8 6h2v2h-2z"/><path d="m12 6h2v2h-2z"/><path d="m16 6h2v2h-2z"/><path d="m32.868 16.5a1.04 1.04 0 0 0 -1.736 0l-8 14a1 1 0 0 0 .006 1c1.188 2.027 2.862 5.376 2.862 6.5v17a1 1 0 0 0 1 1h10a1 1 0 0 0 1-1v-17c0-1.124 1.674-4.473 2.862-6.493a1 1 0 0 0 .006-1zm.132 15.5a1 1 0 1 1 -1-1 1 1 0 0 1 1 1zm3 22h-8v-10h8zm0-16v4h-8v-4c0-1.808-1.991-5.5-2.847-7l5.847-10.234v8.418a3 3 0 1 0 2 0v-8.418l5.847 10.234c-.856 1.5-2.847 5.192-2.847 7z"/><path d="m42 46h2v10h-2z"/><path d="m42 42h2v2h-2z"/><path d="m42 38h2v2h-2z"/><path d="m46 41h2v10h-2z"/><path d="m46 37h2v2h-2z"/><path d="m46 33h2v2h-2z"/><path d="m10 16h4v2h-4z"/><path d="m16 16h12v2h-12z"/><path d="m10 22h14v2h-14z"/><path d="m10 28h12v2h-12z"/><path d="m10 34h2v2h-2z"/><path d="m14 34h8v2h-8z"/><path d="m10 40h6v2h-6z"/><path d="m18 40h4v2h-4z"/></g></svg>