<svg height="512" viewBox="0 0 512 512" width="512" xmlns="http://www.w3.org/2000/svg" xmlns:xlink="http://www.w3.org/1999/xlink"><linearGradient id="a" gradientUnits="userSpaceOnUse" x1="-17.483" x2="506.051" y1="497.483" y2="-26.051" data-name="New Gradient Swatch 1"><stop offset="0" stop-color="#003f8a"/><stop offset=".518" stop-color="#00d7df"/><stop offset="1" stop-color="#006df0"/></linearGradient><path d="m476 40h-440a28.031 28.031 0 0 0 -28 28v312a28.031 28.031 0 0 0 28 28h160.9l-10.67 32h-18.23a8 8 0 0 0 -8 8v16h-56a8 8 0 0 0 0 16h304a8 8 0 0 0 0-16h-56v-16a8 8 0 0 0 -8-8h-18.23l-10.67-32h160.9a28.031 28.031 0 0 0 28-28v-312a28.031 28.031 0 0 0 -28-28zm-140 416v8h-160v-8zm-132.9-16 10.67-32h84.46l10.67 32zm284.9-60a12.01 12.01 0 0 1 -12 12h-440a12.01 12.01 0 0 1 -12-12v-36h464zm0-52h-464v-260a12.01 12.01 0 0 1 12-12h440a12.01 12.01 0 0 1 12 12z" fill="url(#a)"/></svg>