<?xml version="1.0" encoding="iso-8859-1"?>
<!-- Generator: Adobe Illustrator 16.0.0, SVG Export Plug-In . SVG Version: 6.00 Build 0)  -->
<!DOCTYPE svg PUBLIC "-//W3C//DTD SVG 1.1//EN" "http://www.w3.org/Graphics/SVG/1.1/DTD/svg11.dtd">
<svg version="1.1" id="Capa_1" xmlns="http://www.w3.org/2000/svg" xmlns:xlink="http://www.w3.org/1999/xlink" x="0px" y="0px"
	 width="176.708px" height="176.707px" viewBox="0 0 176.708 176.707" style="enable-background:new 0 0 176.708 176.707;"
	 xml:space="preserve">
<g>
	<path d="M161.423,11.661H15.281C6.877,11.661,0,18.544,0,26.941v97.326c0,8.409,6.884,15.283,15.281,15.283h66.837v13.025H35.354
		l-6.235,6.235v6.235h118.47v-6.235l-6.234-6.235H94.588v-13.019h66.835c8.415,0,15.284-6.881,15.284-15.284V26.941
		C176.708,18.544,169.838,11.661,161.423,11.661z M170.472,105.567c0,4.993-4.056,9.049-9.049,9.049H15.281
		c-4.993,0-9.045-4.056-9.045-9.049V26.941c0-4.987,4.052-9.045,9.045-9.045h146.143c4.993,0,9.049,4.058,9.049,9.045V105.567z"/>
	<polygon points="69.48,102.645 31.718,102.645 69.48,74.062 	"/>
	<polygon points="107.23,102.645 69.48,102.645 107.23,61.592 	"/>
	<polygon points="144.989,102.645 107.23,102.645 144.989,42.886 	"/>
	<g>
		<polygon points="32.391,91.027 31.045,89.31 76.799,53.106 76.799,81.138 114.555,40.091 114.555,74.093 144.082,29.81 
			145.896,31.027 112.381,81.309 112.381,45.687 74.623,86.734 74.623,57.612 		"/>
	</g>
</g>
<g>
</g>
<g>
</g>
<g>
</g>
<g>
</g>
<g>
</g>
<g>
</g>
<g>
</g>
<g>
</g>
<g>
</g>
<g>
</g>
<g>
</g>
<g>
</g>
<g>
</g>
<g>
</g>
<g>
</g>
</svg>
