<svg height="512" viewBox="0 0 512 512" width="512" xmlns="http://www.w3.org/2000/svg" xmlns:xlink="http://www.w3.org/1999/xlink"><linearGradient id="a" gradientUnits="userSpaceOnUse" x1="-1.698" x2="549.863" y1="529.698" y2="-21.863" data-name="New Gradient Swatch 1"><stop offset="0" stop-color="#003f8a"/><stop offset=".518" stop-color="#00d7df"/><stop offset="1" stop-color="#006df0"/></linearGradient><linearGradient id="c" x1="-9.698" x2="541.863" xlink:href="#a" y1="521.698" y2="-29.863"/><linearGradient id="e" x1="-207.698" x2="343.863" xlink:href="#a" y1="323.698" y2="-227.863"/><linearGradient id="f" x1="-191.698" x2="359.863" xlink:href="#a" y1="339.698" y2="-211.863"/><linearGradient id="g" x1="-175.698" x2="375.863" xlink:href="#a" y1="355.698" y2="-195.863"/><linearGradient id="h" x1="-159.698" x2="391.863" xlink:href="#a" y1="371.698" y2="-179.863"/><linearGradient id="i" x1="-165.698" x2="385.863" xlink:href="#a" y1="365.698" y2="-185.863"/><linearGradient id="j" x1="172.302" x2="723.863" xlink:href="#a" y1="703.698" y2="152.137"/><linearGradient id="k" x1="122.302" x2="673.863" xlink:href="#a" y1="653.698" y2="102.137"/><linearGradient id="l" x1="148.302" x2="699.863" xlink:href="#a" y1="679.698" y2="128.137"/><linearGradient id="m" x1="-147.698" x2="403.863" xlink:href="#a" y1="383.698" y2="-167.863"/><g><path d="m256 248a24 24 0 1 0 24 24 24.028 24.028 0 0 0 -24-24zm0 32a8 8 0 1 1 8-8 8.009 8.009 0 0 1 -8 8z" fill="url(#a)"/><path d="m256 160a112 112 0 1 0 112 112 112.123 112.123 0 0 0 -112-112zm0 208a96 96 0 1 1 96-96 96.115 96.115 0 0 1 -96 96z" fill="url(#a)"/><path d="m476 32h-440a28.031 28.031 0 0 0 -28 28v392a28.031 28.031 0 0 0 28 28h440a28.031 28.031 0 0 0 28-28v-392a28.031 28.031 0 0 0 -28-28zm12 420a12.01 12.01 0 0 1 -12 12h-440a12.01 12.01 0 0 1 -12-12v-356h464zm0-372h-464v-20a12.01 12.01 0 0 1 12-12h440a12.01 12.01 0 0 1 12 12z" fill="url(#c)"/><path d="m328 248h-14.06l9.94-9.94a7.985 7.985 0 0 0 0-11.31l-22.63-22.63a7.985 7.985 0 0 0 -11.31 0l-9.94 9.94v-14.06a8 8 0 0 0 -8-8h-32a8 8 0 0 0 -8 8v14.06l-9.94-9.94a7.985 7.985 0 0 0 -11.31 0l-22.63 22.63a7.985 7.985 0 0 0 0 11.31l9.94 9.94h-14.06a8 8 0 0 0 -8 8v32a8 8 0 0 0 8 8h14.06l-9.94 9.94a7.985 7.985 0 0 0 0 11.31l22.63 22.63a7.985 7.985 0 0 0 11.31 0l9.94-9.94v14.06a8 8 0 0 0 8 8h32a8 8 0 0 0 8-8v-14.06l9.94 9.94a7.985 7.985 0 0 0 11.31 0l22.63-22.63a7.985 7.985 0 0 0 0-11.31l-9.94-9.94h14.06a8 8 0 0 0 8-8v-32a8 8 0 0 0 -8-8zm-8 32h-18.74a8 8 0 0 0 -7.54 5.33 39.874 39.874 0 0 1 -1.62 3.91 8.006 8.006 0 0 0 1.56 9.11l13.25 13.25-11.31 11.31-13.25-13.25a8.022 8.022 0 0 0 -9.11-1.56 39.874 39.874 0 0 1 -3.91 1.62 8 8 0 0 0 -5.33 7.54v18.74h-16v-18.74a8 8 0 0 0 -5.33-7.54 39.874 39.874 0 0 1 -3.91-1.62 8.022 8.022 0 0 0 -9.11 1.56l-13.25 13.25-11.31-11.31 13.25-13.25a8.006 8.006 0 0 0 1.56-9.11 39.874 39.874 0 0 1 -1.62-3.91 8 8 0 0 0 -7.54-5.33h-18.74v-16h18.74a8 8 0 0 0 7.54-5.33 39.874 39.874 0 0 1 1.62-3.91 8.006 8.006 0 0 0 -1.56-9.11l-13.25-13.25 11.31-11.31 13.25 13.25a8.006 8.006 0 0 0 9.11 1.56 39.874 39.874 0 0 1 3.91-1.62 8 8 0 0 0 5.33-7.54v-18.74h16v18.74a8 8 0 0 0 5.33 7.54 39.874 39.874 0 0 1 3.91 1.62 8.006 8.006 0 0 0 9.11-1.56l13.25-13.25 11.31 11.31-13.25 13.25a8.006 8.006 0 0 0 -1.56 9.11 39.874 39.874 0 0 1 1.62 3.91 8 8 0 0 0 7.54 5.33h18.74z" fill="url(#a)"/><path d="m48 72h8a8 8 0 0 0 0-16h-8a8 8 0 0 0 0 16z" fill="url(#e)"/><path d="m80 72h8a8 8 0 0 0 0-16h-8a8 8 0 0 0 0 16z" fill="url(#f)"/><path d="m112 72h8a8 8 0 0 0 0-16h-8a8 8 0 0 0 0 16z" fill="url(#g)"/><path d="m136 112h-88a8 8 0 0 0 0 16h88a8 8 0 0 0 0-16z" fill="url(#h)"/><path d="m64 136h-16a8 8 0 0 0 0 16h16a8 8 0 0 0 0-16z" fill="url(#i)"/><path d="m472 408h-48a8 8 0 0 0 -8 8v24a8 8 0 0 0 8 8h48a8 8 0 0 0 8-8v-24a8 8 0 0 0 -8-8zm-8 24h-32v-8h32z" fill="url(#j)"/><path d="m400 408h-80a8 8 0 0 0 0 16h80a8 8 0 0 0 0-16z" fill="url(#k)"/><path d="m400 432h-24a8 8 0 0 0 0 16h24a8 8 0 0 0 0-16z" fill="url(#l)"/><path d="m96 136h-8a8 8 0 0 0 0 16h8a8 8 0 0 0 0-16z" fill="url(#m)"/></g></svg>